Coordinates
version=1
nRows=60
nColumns=12
inDegrees=yes

Units are S.I. units (second, meters, Newtons, ...)
Angles are in degrees

endheader
time	SC_y	SC_z	SC_x	AC_y	AC_z	AC_x	GH_y	GH_z	GH_yy	EL_x	PS_y
       0.0              -56.89          21.26          60.99          62.61         -12.36          17.67         -47.42          45.02          167.6          75.16          117.8
   0.03291              -56.88          21.26          60.99          62.61         -12.35          17.67         -47.44          45.01          167.6          75.16          117.8
   0.06582              -56.88          21.26          60.98          62.61         -12.35          17.66         -47.46           45.0          167.5          75.15          117.8
   0.09873              -56.87          21.25          60.97          62.61         -12.35          17.66         -47.47          44.99          167.5          75.14          117.8
    0.1316              -56.86          21.25          60.96          62.61         -12.35          17.65         -47.49          44.97          167.5          75.14          117.7
    0.1645              -56.85          21.25          60.95          62.61         -12.35          17.65         -47.52          44.96          167.4          75.13          117.7
    0.1975              -56.84          21.24          60.94           62.6         -12.35          17.64         -47.54          44.95          167.4          75.12          117.7
    0.2304              -56.83          21.24          60.93           62.6         -12.35          17.63         -47.56          44.94          167.3          75.11          117.7
    0.2633              -56.82          21.23          60.92           62.6         -12.34          17.63         -47.59          44.92          167.3           75.1          117.7
    0.2962              -56.81          21.23          60.91           62.6         -12.34          17.62         -47.62          44.91          167.2          75.09          117.7
    0.3291               -56.8          21.22           60.9          62.59         -12.34          17.61         -47.65          44.89          167.2          75.08          117.7
     0.362              -56.79          21.22          60.89          62.59         -12.34           17.6         -47.68          44.87          167.1          75.06          117.7
    0.3949              -56.77          21.21          60.87          62.59         -12.34          17.59         -47.72          44.85          167.1          75.05          117.7
    0.4278              -56.76           21.2          60.86          62.59         -12.33          17.58         -47.75          44.83          167.0          75.03          117.7
    0.4607              -56.74           21.2          60.84          62.58         -12.33          17.57          -47.8          44.81          166.9          75.02          117.7
    0.4936              -56.73          21.19          60.82          62.58         -12.33          17.56         -47.84          44.78          166.8           75.0          117.6
    0.5265              -56.71          21.18           60.8          62.57         -12.33          17.54         -47.89          44.76          166.8          74.98          117.6
    0.5595              -56.69          21.17          60.78          62.57         -12.32          17.53         -47.94          44.73          166.7          74.96          117.6
    0.5924              -56.66          21.16          60.76          62.57         -12.32          17.51          -48.0          44.69          166.6          74.94          117.6
    0.6253              -56.64          21.15          60.73          62.56         -12.32           17.5         -48.06          44.66          166.4          74.91          117.6
    0.6582              -56.61          21.14           60.7          62.55         -12.31          17.48         -48.13          44.62          166.3          74.89          117.6
    0.6911              -56.58          21.12          60.67          62.55         -12.31          17.46         -48.21          44.58          166.2          74.86          117.5
     0.724              -56.55          21.11          60.64          62.54          -12.3          17.43         -48.29          44.53          166.0          74.82          117.5
    0.7569              -56.51          21.09           60.6          62.53          -12.3          17.41         -48.38          44.48          165.9          74.79          117.5
    0.7898              -56.47          21.08          60.56          62.52         -12.29          17.38         -48.49          44.42          165.7          74.75          117.5
    0.8227              -56.43          21.06          60.51          62.51         -12.28          17.35          -48.6          44.36          165.5           74.7          117.4
    0.8556              -56.38          21.03          60.46           62.5         -12.27          17.31         -48.73          44.28          165.3          74.65          117.4
    0.8886              -56.32          21.01           60.4          62.49         -12.26          17.27         -48.88           44.2          165.0          74.59          117.4
    0.9215              -56.25          20.98          60.33          62.48         -12.25          17.22         -49.04          44.11          164.7          74.53          117.3
    0.9544              -56.18          20.95          60.25          62.46         -12.24          17.17         -49.23          44.01          164.4          74.46          117.2
    0.9873               -56.1          20.91          60.17          62.44         -12.23          17.11         -49.44          43.89          164.0          74.37          117.2
      1.02               -56.0          20.87          60.07          62.42         -12.21          17.05         -49.69          43.75          163.6          74.28          117.1
     1.053              -55.89          20.82          59.95           62.4          -12.2          16.97         -49.97           43.6          163.1          74.17          117.0
     1.086              -55.76          20.76          59.82          62.37         -12.18          16.88          -50.3          43.41          162.5          74.04          116.9
     1.119              -55.61          20.69          59.66          62.34         -12.15          16.77         -50.69           43.2          161.8          73.89          116.8
     1.152              -55.43          20.61          59.48           62.3         -12.12          16.65         -51.14          42.95          161.0          73.71          116.7
     1.185              -55.22          20.52          59.26          62.26         -12.09           16.5         -51.68          42.65          160.1           73.5          116.5
     1.218              -54.97          20.41          58.99           62.2         -12.05          16.32         -52.32          42.29          158.9          73.25          116.4
     1.251              -54.66          20.27          58.68          62.14          -12.0           16.1         -53.11          41.85          157.5          72.94          116.1
     1.283              -54.29           20.1          58.29          62.06         -11.94          15.84         -54.06          41.32          155.8          72.57          115.9
     1.316              -53.82           19.9          57.81          61.96         -11.87          15.51         -55.24          40.67          153.8          72.11          115.5
     1.349              -53.25          19.64          57.21          61.84         -11.78          15.11         -56.71          39.85          151.2          71.53          115.1
     1.382              -52.52          19.32          56.45          61.69         -11.66          14.59         -58.56          38.82          147.9          70.81          114.6
     1.415               -51.6          18.91           55.5          61.49         -11.52          13.94         -60.91          37.51          143.7          69.89          113.9
     1.448              -50.42          18.38          54.27          61.24         -11.33          13.11         -63.92          35.84          138.4          68.72          113.0
     1.481               -48.9          17.71           52.7          60.92         -11.09          12.04         -67.79          33.69          131.6          67.21          111.9
     1.514              -46.97          16.85          50.68           60.5         -10.78          10.68         -72.72          30.94          122.8          65.28          110.5
     1.547              -44.53          15.76          48.16          59.99          -10.4          8.959         -78.93          27.49          111.8          62.85          108.8
      1.58              -41.56          14.44          45.07          59.36         -9.927          6.867         -86.49          23.28          98.46           59.9          106.6
     1.613              -38.13          12.91           41.5          58.63         -9.383          4.443         -95.26           18.4          82.95          56.47          104.1
     1.645               -34.4          11.26          37.64          57.84         -8.793          1.817         -104.8          13.12          66.16          52.76          101.4
     1.678              -30.68          9.598          33.77          57.04         -8.203        -0.8082         -114.2          7.844          49.36          49.05          98.65
     1.711              -27.24          8.068           30.2          56.31         -7.658         -3.233         -123.0          2.967          33.85          45.62          96.14
     1.744              -24.27          6.748          27.11          55.68         -7.188         -5.325         -130.6          -1.24          20.47          42.67          93.97
     1.777              -21.84          5.665          24.59          55.17         -6.803         -7.041         -136.8         -4.693          9.491          40.24           92.2
      1.81               -19.9          4.803          22.57          54.75         -6.496         -8.407         -141.7         -7.438         0.7588          38.31          90.79
     1.843              -18.39          4.129           21.0          54.43         -6.256         -9.475         -145.6         -9.588         -6.078           36.8          89.68
     1.876               -17.2          3.603          19.77          54.18         -6.069         -10.31         -148.6         -11.26          -11.4          35.63          88.82
     1.909              -16.28          3.192          18.82          53.99         -5.923         -10.96         -150.9         -12.57         -15.57          34.71          88.15
     1.942              -15.56          2.869          18.06          53.83         -5.808         -11.47         -152.8          -13.6         -18.84          33.98          87.62
